HIERARCHY
ROOT Root
{
  OFFSET 0.0 0.0 0.0
  CHANNELS 6 Xposition Yposition Zposition Zrotation Yrotation Xrotation
  JOINT Hips
  {
    OFFSET 0.0 100.0 0.0
    CHANNELS 6 Xposition Yposition Zposition Zrotation Yrotation Xrotation
    JOINT Spine1
    {
      OFFSET -0.013727 5.003763 -0.053727
      CHANNELS 3 Zrotation Yrotation Xrotation
      JOINT Spine2
      {
        OFFSET -0.0 7.125301 -0.029825
        CHANNELS 3 Zrotation Yrotation Xrotation
        JOINT Chest
        {
          OFFSET -1e-06 7.550063 -0.815971
          CHANNELS 3 Zrotation Yrotation Xrotation
          JOINT Neck1
          {
            OFFSET -0.181677 26.311295 -0.553348
            CHANNELS 3 Zrotation Yrotation Xrotation
            JOINT Neck2
            {
              OFFSET -3e-06 7.709397 2.302585
              CHANNELS 3 Zrotation Yrotation Xrotation
              JOINT Head
              {
                OFFSET -5e-06 6.128916 1.953709
                CHANNELS 3 Zrotation Yrotation Xrotation
                JOINT HeadEnd
                {
                  OFFSET 0.003598 16.065403 -1.835379
                  CHANNELS 3 Zrotation Yrotation Xrotation
                }
                JOINT Jaw
                {
                  OFFSET 0.002637 0.475592 3.094941
                  CHANNELS 3 Zrotation Yrotation Xrotation
                }
                JOINT LeftEye
                {
                  OFFSET 3.206381 5.380205 7.586883
                  CHANNELS 3 Zrotation Yrotation Xrotation
                }
                JOINT RightEye
                {
                  OFFSET -3.22244 5.361869 7.558234
                  CHANNELS 3 Zrotation Yrotation Xrotation
                }
              }
            }
          }
          JOINT LeftShoulder
          {
            OFFSET 1.621652 23.237164 5.113413
            CHANNELS 3 Zrotation Yrotation Xrotation
            JOINT LeftArm
            {
              OFFSET 14.919846 2e-06 -5.502326
              CHANNELS 3 Zrotation Yrotation Xrotation
              JOINT LeftForeArm
              {
                OFFSET 28.739307 0.0 -0.002588
                CHANNELS 3 Zrotation Yrotation Xrotation
                JOINT LeftHand
                {
                  OFFSET 27.093981 -1e-06 0.002609
                  CHANNELS 3 Zrotation Yrotation Xrotation
                  JOINT LeftHandThumb1
                  {
                    OFFSET 2.276482 -1.392045 3.191413
                    CHANNELS 3 Zrotation Yrotation Xrotation
                    JOINT LeftHandThumb2
                    {
                      OFFSET 4.012836 -1.828127 1.641654
                      CHANNELS 3 Zrotation Yrotation Xrotation
                      JOINT LeftHandThumb3
                      {
                        OFFSET 2.798515 0.0 -3e-06
                        CHANNELS 3 Zrotation Yrotation Xrotation
                        JOINT LeftHandThumbEnd
                        {
                          OFFSET 3.180793 -4e-06 4e-06
                          CHANNELS 3 Zrotation Yrotation Xrotation
                        }
                      }
                    }
                  }
                  JOINT LeftHandIndex1
                  {
                    OFFSET 3.247555 -0.531998 2.296169
                    CHANNELS 3 Zrotation Yrotation Xrotation
                    JOINT LeftHandIndex2
                    {
                      OFFSET 6.364578 0.01206 0.1786
                      CHANNELS 3 Zrotation Yrotation Xrotation
                      JOINT LeftHandIndex3
                      {
                        OFFSET 3.662364 0.0 0.0
                        CHANNELS 3 Zrotation Yrotation Xrotation
                        JOINT LeftHandIndex4
                        {
                          OFFSET 2.329242 4e-06 4e-06
                          CHANNELS 3 Zrotation Yrotation Xrotation
                          JOINT LeftHandIndexEnd
                          {
                            OFFSET 2.759615 -0.180537 -0.113024
                            CHANNELS 3 Zrotation Yrotation Xrotation
                          }
                        }
                      }
                    }
                  }
                  JOINT LeftHandMiddle1
                  {
                    OFFSET 3.163495 0.240981 1.000332
                    CHANNELS 3 Zrotation Yrotation Xrotation
                    JOINT LeftHandMiddle2
                    {
                      OFFSET 6.19078 -0.259278 -1.002548
                      CHANNELS 3 Zrotation Yrotation Xrotation
                      JOINT LeftHandMiddle3
                      {
                        OFFSET 4.35652 -4e-06 -1e-06
                        CHANNELS 3 Zrotation Yrotation Xrotation
                        JOINT LeftHandMiddle4
                        {
                          OFFSET 2.996877 -8e-06 0.0
                          CHANNELS 3 Zrotation Yrotation Xrotation
                          JOINT LeftHandMiddleEnd
                          {
                            OFFSET 2.304287 -0.294569 -0.031741
                            CHANNELS 3 Zrotation Yrotation Xrotation
                          }
                        }
                      }
                    }
                  }
                  JOINT LeftHandRing1
                  {
                    OFFSET 2.882643 -0.053652 -0.322543
                    CHANNELS 3 Zrotation Yrotation Xrotation
                    JOINT LeftHandRing2
                    {
                      OFFSET 5.854541 -0.486202 -1.373841
                      CHANNELS 3 Zrotation Yrotation Xrotation
                      JOINT LeftHandRing3
                      {
                        OFFSET 4.350578 0.0 3e-06
                        CHANNELS 3 Zrotation Yrotation Xrotation
                        JOINT LeftHandRing4
                        {
                          OFFSET 2.651321 7e-06 2e-06
                          CHANNELS 3 Zrotation Yrotation Xrotation
                          JOINT LeftHandRingEnd
                          {
                            OFFSET 1.936105 0.077687 -7.1e-05
                            CHANNELS 3 Zrotation Yrotation Xrotation
                          }
                        }
                      }
                    }
                  }
                  JOINT LeftHandPinky1
                  {
                    OFFSET 2.8655 -0.310005 -1.600378
                    CHANNELS 3 Zrotation Yrotation Xrotation
                    JOINT LeftHandPinky2
                    {
                      OFFSET 5.087849 -1.331141 -1.77123
                      CHANNELS 3 Zrotation Yrotation Xrotation
                      JOINT LeftHandPinky3
                      {
                        OFFSET 3.070974 4e-06 0.0
                        CHANNELS 3 Zrotation Yrotation Xrotation
                        JOINT LeftHandPinky4
                        {
                          OFFSET 1.549672 0.0 1e-06
                          CHANNELS 3 Zrotation Yrotation Xrotation
                          JOINT LeftHandPinkyEnd
                          {
                            OFFSET 1.944893 -0.157802 0.057219
                            CHANNELS 3 Zrotation Yrotation Xrotation
                          }
                        }
                      }
                    }
                  }
                }
              }
            }
          }
          JOINT RightShoulder
          {
            OFFSET -1.380118 23.180309 5.214158
            CHANNELS 3 Zrotation Yrotation Xrotation
            JOINT RightArm
            {
              OFFSET -15.037196 1.2e-05 -5.545604
              CHANNELS 3 Zrotation Yrotation Xrotation
              JOINT RightForeArm
              {
                OFFSET -28.736639 2e-06 -0.002597
                CHANNELS 3 Zrotation Yrotation Xrotation
                JOINT RightHand
                {
                  OFFSET -27.133619 -0.0 0.002613
                  CHANNELS 3 Zrotation Yrotation Xrotation
                  JOINT RightHandThumb1
                  {
                    OFFSET -2.274032 -1.383988 3.163127
                    CHANNELS 3 Zrotation Yrotation Xrotation
                    JOINT RightHandThumb2
                    {
                      OFFSET -4.011429 -1.827466 1.640914
                      CHANNELS 3 Zrotation Yrotation Xrotation
                      JOINT RightHandThumb3
                      {
                        OFFSET -2.794935 -4e-06 -3e-06
                        CHANNELS 3 Zrotation Yrotation Xrotation
                        JOINT RightHandThumbEnd
                        {
                          OFFSET -3.183852 4e-06 1e-06
                          CHANNELS 3 Zrotation Yrotation Xrotation
                        }
                      }
                    }
                  }
                  JOINT RightHandIndex1
                  {
                    OFFSET -3.253266 -0.520057 2.282866
                    CHANNELS 3 Zrotation Yrotation Xrotation
                    JOINT RightHandIndex2
                    {
                      OFFSET -6.341917 0.012471 0.178266
                      CHANNELS 3 Zrotation Yrotation Xrotation
                      JOINT RightHandIndex3
                      {
                        OFFSET -3.654871 -8e-06 -0.0
                        CHANNELS 3 Zrotation Yrotation Xrotation
                        JOINT RightHandIndex4
                        {
                          OFFSET -2.327586 0.0 1e-06
                          CHANNELS 3 Zrotation Yrotation Xrotation
                          JOINT RightHandIndexEnd
                          {
                            OFFSET -2.76179 -0.180656 -0.113078
                            CHANNELS 3 Zrotation Yrotation Xrotation
                          }
                        }
                      }
                    }
                  }
                  JOINT RightHandMiddle1
                  {
                    OFFSET -3.168106 0.246593 1.00103
                    CHANNELS 3 Zrotation Yrotation Xrotation
                    JOINT RightHandMiddle2
                    {
                      OFFSET -6.180828 -0.258836 -1.000895
                      CHANNELS 3 Zrotation Yrotation Xrotation
                      JOINT RightHandMiddle3
                      {
                        OFFSET -4.348901 0.0 -0.0
                        CHANNELS 3 Zrotation Yrotation Xrotation
                        JOINT RightHandMiddle4
                        {
                          OFFSET -3.00024 -4e-06 -2e-06
                          CHANNELS 3 Zrotation Yrotation Xrotation
                          JOINT RightHandMiddleEnd
                          {
                            OFFSET -2.30252 -0.29437 -0.031706
                            CHANNELS 3 Zrotation Yrotation Xrotation
                          }
                        }
                      }
                    }
                  }
                  JOINT RightHandRing1
                  {
                    OFFSET -2.88569 -0.067952 -0.308858
                    CHANNELS 3 Zrotation Yrotation Xrotation
                    JOINT RightHandRing2
                    {
                      OFFSET -5.854198 -0.48613 -1.373731
                      CHANNELS 3 Zrotation Yrotation Xrotation
                      JOINT RightHandRing3
                      {
                        OFFSET -4.33881 -4e-06 -0.0
                        CHANNELS 3 Zrotation Yrotation Xrotation
                        JOINT RightHandRing4
                        {
                          OFFSET -2.654903 -4e-06 4e-06
                          CHANNELS 3 Zrotation Yrotation Xrotation
                          JOINT RightHandRingEnd
                          {
                            OFFSET -1.933568 0.077527 -5.2e-05
                            CHANNELS 3 Zrotation Yrotation Xrotation
                          }
                        }
                      }
                    }
                  }
                  JOINT RightHandPinky1
                  {
                    OFFSET -2.866425 -0.342796 -1.584145
                    CHANNELS 3 Zrotation Yrotation Xrotation
                    JOINT RightHandPinky2
                    {
                      OFFSET -5.091371 -1.332055 -1.772385
                      CHANNELS 3 Zrotation Yrotation Xrotation
                      JOINT RightHandPinky3
                      {
                        OFFSET -3.062664 -4e-06 1e-06
                        CHANNELS 3 Zrotation Yrotation Xrotation
                        JOINT RightHandPinky4
                        {
                          OFFSET -1.546529 4e-06 -2e-06
                          CHANNELS 3 Zrotation Yrotation Xrotation
                          JOINT RightHandPinkyEnd
                          {
                            OFFSET -1.945119 -0.157718 0.057211
                            CHANNELS 3 Zrotation Yrotation Xrotation
                          }
                        }
                      }
                    }
                  }
                }
              }
            }
          }
        }
      }
    }
    JOINT LeftLeg
    {
      OFFSET 10.043214 -8.434526 2.595655
      CHANNELS 3 Zrotation Yrotation Xrotation
      JOINT LeftShin
      {
        OFFSET -1e-06 -43.221752 -0.802913
        CHANNELS 3 Zrotation Yrotation Xrotation
        JOINT LeftFoot
        {
          OFFSET 1e-06 -42.155094 -3.481523
          CHANNELS 3 Zrotation Yrotation Xrotation
          JOINT LeftToeBase
          {
            OFFSET 0.0 -5.059472 13.231529
            CHANNELS 3 Zrotation Yrotation Xrotation
            JOINT LeftToeEnd
            {
              OFFSET -0.009607 -1.647619 6.513017
              CHANNELS 3 Zrotation Yrotation Xrotation
            }
          }
        }
      }
    }
    JOINT RightLeg
    {
      OFFSET -10.047278 -8.29526 2.620317
      CHANNELS 3 Zrotation Yrotation Xrotation
      JOINT RightShin
      {
        OFFSET 1e-06 -43.362206 -0.805556
        CHANNELS 3 Zrotation Yrotation Xrotation
        JOINT RightFoot
        {
          OFFSET 2e-06 -42.117393 -3.478398
          CHANNELS 3 Zrotation Yrotation Xrotation
          JOINT RightToeBase
          {
            OFFSET -0.0 -5.079609 13.284196
            CHANNELS 3 Zrotation Yrotation Xrotation
            JOINT RightToeEnd
            {
              OFFSET 0.009532 -1.634378 6.460591
              CHANNELS 3 Zrotation Yrotation Xrotation
            }
          }
        }
      }
    }
  }
}
MOTION
Frames: 4
Frame Time: 0.03333333333333333
0.0 0.0 0.0 0.0 -0.0 0.0 11.2595 85.402443 8.584216 0.106417 19.299719 -7.161599 -5.994607 3.188927 4.954604 -2.35561 1.685545 -2.926823 -6.553481 0.94021 12.766422 -7.881924 9.748123 14.884729 5.437111 18.184277 -2.145415 -1.245594 22.253382 -9.94663 7.7e-05 -2.2e-05 6e-06 0.01805 -0.240131 -0.098477 0.674628 -4.084976 -11.153672 -0.665712 3.6399 -11.272779 13.320103 -14.411846 16.569853 -68.343079 -18.327316 -23.099539 -170.054062 -82.700394 169.239807 17.318386 -13.291032 -2.042668 -5.882103 9.861286 0.70259 -10.936872 -0.360575 7.156207 -0.0 8.774824 -1e-06 -14.91818 17.966442 6.320312 -1.844032 2.498505 -2.507277 -10.163602 4.678944 4.621109 -20.976027 -4e-06 3e-06 -21.226288 2.451696 -3.593999 0.0 -6e-06 0.0 -1.362681 2.240798 -0.746324 -21.334917 0.584909 3.008323 -13.821217 -3e-06 3e-06 -23.887175 -0.249079 -0.839482 -58.593685 2.970173 -1.238359 -0.294026 1.679688 0.833255 -14.21821 0.093213 1.300581 -34.212051 -0.287565 0.967172 -20.033215 0.964536 1.212845 1e-06 1e-06 0.0 -3.440389 0.788233 0.501656 -15.928189 -3.167311 2.999708 -6.338828 -2e-06 0.0 -18.123447 3.648183 -4.905669 -4e-06 -0.0 -2e-06 -12.949996 13.834479 20.446999 87.598526 -13.345597 24.87582 -179.761734 68.011055 179.766388 -17.02597 7.12117 45.992661 2.243539 -5.255037 -3.180157 14.282895 -0.826592 6.952501 -5e-06 -12.690604 -1e-06 16.427868 -17.293711 2.945435 1.665666 -1.955923 -2.878298 4.727797 -4.170587 4.993921 11.020524 6e-06 -0.0 12.109051 -3.735715 -2.866783 -1e-06 -1e-06 0.0 1.291986 -1.928549 -1.49809 14.800127 0.567469 3.865607 14.242572 -1.341735 -6.660657 19.631969 0.143929 -0.648242 50.213467 -0.941733 -6.418374 0.353028 -1.51115 -0.031939 20.22279 3.684312 2.316631 18.787271 8e-06 2e-06 10.751627 -0.479867 1.397909 -1e-06 0.0 -0.0 3.273806 0.305947 -0.58011 21.486813 11.830377 2.266134 8.162926 3e-06 -1e-06 18.399078 -3.798979 -4.940573 3e-06 -1e-06 1e-06 8.39325 27.858685 -41.677353 -0.08778 -0.568288 61.379612 -2.349803 30.01737 3.290356 1.725879 -2.066879 3.274788 0.0 -0.0 2e-06 -26.918455 10.06836 5.406154 -0.009401 3.439287 97.561836 15.587541 3.500961 10.713065 -1.923064 0.953105 -1.641727 1e-06 0.0 -1e-06
0.0 0.0 0.0 0.0 -0.0 0.0 13.648765 82.366058 11.49518 0.161451 38.488117 -4.844227 -6.803512 2.102822 8.709719 -2.564682 0.569602 -2.413982 -6.772505 1.292016 15.219221 -3.823715 6.229643 12.613223 4.054782 17.079794 -2.892613 -3.206889 20.441278 -13.376147 7.7e-05 -2.2e-05 6e-06 0.001158 -0.169231 -0.089827 0.702318 -3.932076 -11.00395 -0.726711 3.612729 -11.032214 19.757357 -18.305355 13.05639 -65.129959 -26.494299 -17.320414 -167.717834 -88.033478 166.980484 19.308247 -13.790511 -4.672255 -5.882111 9.861293 0.70259 -10.936874 -0.360574 7.156209 -1e-06 8.774831 -1e-06 -15.336109 17.448378 5.831017 -1.844031 2.498507 -2.507278 -10.163604 4.678949 4.621111 -20.97603 -0.0 3e-06 -21.226295 2.451702 -3.594004 0.0 -6e-06 -0.0 -1.362682 2.240801 -0.746324 -21.334919 0.584912 3.008326 -13.821218 -1e-06 2e-06 -23.887177 -0.249075 -0.839485 -59.21751 2.542509 -1.404474 -0.294023 1.679688 0.833257 -14.218214 0.093217 1.300583 -34.212055 -0.287558 0.967172 -20.033218 0.96454 1.212842 0.0 0.0 1e-06 -3.440391 0.788234 0.501656 -15.928191 -3.16731 2.99971 -6.338827 1e-06 2e-06 -18.123451 3.648188 -4.905675 -4e-06 0.0 -1e-06 -12.699035 12.771726 19.878197 93.184227 -13.186408 16.378084 171.585571 67.83445 171.996307 -15.418325 9.45698 42.864109 2.243543 -5.255039 -3.180157 14.282894 -0.826597 6.952499 1e-06 -12.690606 -0.0 15.43652 -17.734827 3.780224 1.665669 -1.955921 -2.878299 4.727801 -4.170588 4.993925 11.020529 1e-06 -4e-06 12.109058 -3.735717 -2.866787 -1e-06 -0.0 0.0 1.291986 -1.92855 -1.498089 14.800134 0.567463 3.865606 14.24258 -1.341737 -6.660662 19.631975 0.143928 -0.64825 50.116283 -0.594622 -5.803104 0.353029 -1.511148 -0.031939 20.222797 3.684307 2.316627 18.787281 3e-06 -6e-06 10.751632 -0.479869 1.397903 0.0 -1e-06 0.0 3.273808 0.305946 -0.58011 21.486818 11.830374 2.266128 8.162928 4e-06 -2e-06 18.399094 -3.798988 -4.940582 3e-06 0.0 -1e-06 0.806209 20.619917 -53.918839 0.444712 0.067341 73.027466 0.222312 24.317972 6.358662 1.72871 -2.012016 3.014626 -0.0 -0.0 3e-06 -23.517698 -1.531617 9.570876 0.085912 2.39036 106.169708 14.577377 1.849602 4.160417 -2.034625 0.97298 -1.782733 -0.0 1e-06 -1e-06
0.0 0.0 0.0 0.0 -0.0 0.0 17.118696 80.190086 13.697633 2.092433 40.316872 -2.549419 -6.931034 2.543526 10.363856 -2.826307 1.990541 -1.661587 -6.949023 3.371722 17.39497 -5.463446 7.036557 9.681013 3.07187 17.327974 -3.000497 -4.799458 19.712494 -14.973887 7.7e-05 -2.3e-05 6e-06 -0.039354 -0.030019 -0.112724 0.689551 -3.747407 -10.878565 -0.796084 3.699652 -10.891613 19.165524 -14.781284 12.783779 -61.654152 -28.242163 -15.211781 -177.123535 -85.550537 176.540344 21.522955 -13.392492 -4.903141 -5.88211 9.861292 0.702589 -10.936875 -0.360573 7.156208 -2e-06 8.774829 -1e-06 -15.452738 17.575132 6.112374 -1.844029 2.498506 -2.507277 -10.163604 4.678949 4.621111 -20.97603 0.0 1e-06 -21.226294 2.4517 -3.594005 0.0 -6e-06 -1e-06 -1.362682 2.2408 -0.746324 -21.334921 0.584913 3.008322 -13.821217 0.0 1e-06 -23.887177 -0.249076 -0.839486 -59.653412 2.479971 -1.596994 -0.294024 1.679687 0.833256 -14.218212 0.093218 1.300582 -34.212059 -0.287559 0.967167 -20.033218 0.964538 1.212839 1e-06 0.0 1e-06 -3.44039 0.788234 0.501655 -15.928189 -3.167308 2.999709 -6.338829 -0.0 1e-06 -18.123453 3.648188 -4.905673 -4e-06 0.0 -2e-06 -13.481438 16.390295 19.417336 91.599495 -8.643292 13.277218 171.535614 66.251564 173.244278 -15.430795 9.472941 42.022682 2.243543 -5.255039 -3.180158 14.282892 -0.826596 6.952503 3e-06 -12.690607 -2e-06 14.485523 -17.962296 4.098659 1.665666 -1.955922 -2.8783 4.727799 -4.170588 4.993925 11.020528 -0.0 -4e-06 12.109055 -3.735716 -2.866787 -0.0 -1e-06 0.0 1.291986 -1.92855 -1.49809 14.800129 0.567467 3.86561 14.242573 -1.341737 -6.660661 19.631966 0.143927 -0.648248 50.019226 -0.658299 -5.766443 0.353029 -1.511151 -0.03194 20.222792 3.684307 2.316629 18.787273 4e-06 1e-06 10.751631 -0.479869 1.397907 -0.0 -1e-06 2e-06 3.273807 0.305946 -0.58011 21.486814 11.830373 2.266132 8.162929 0.0 -1e-06 18.399082 -3.798985 -4.940579 3e-06 0.0 -3e-06 -2.333318 22.268749 -56.305489 0.493787 0.173921 79.892418 -1.947115 22.857229 0.424237 1.684921 -1.887485 3.352232 0.0 -0.0 2e-06 -19.570652 3.068865 3.206548 0.186462 1.939994 116.865669 12.818933 4.76428 -3.979484 -2.300725 0.934607 -2.800085 -0.0 0.0 -1e-06
0.0 0.0 0.0 0.0 -0.0 0.0 19.394585 78.949707 15.0201 3.927796 39.977676 -0.314159 -7.050117 2.950207 11.825845 -2.975303 2.848046 -0.862609 -7.598833 4.911876 19.093182 -7.775387 7.980819 7.832848 2.351876 17.132925 -3.137994 -6.111825 18.614784 -15.74813 7.7e-05 -2.2e-05 6e-06 -0.050923 -0.003065 -0.096075 0.663886 -3.711264 -10.844788 -0.792528 3.709681 -10.865941 17.63587 -11.573273 12.929545 -60.087395 -26.716703 -14.756395 -175.836533 -81.335915 175.021347 22.569082 -12.142224 -4.695248 -5.882114 9.861299 0.70259 -10.936884 -0.360574 7.156215 -1e-06 8.774835 -2e-06 -15.508926 17.626648 6.132747 -1.844033 2.498507 -2.507281 -10.163614 4.678951 4.621114 -20.976048 -0.0 4e-06 -21.226311 2.451703 -3.594005 0.0 -6e-06 -0.0 -1.362683 2.2408 -0.746325 -21.334942 0.584913 3.008329 -13.821233 -0.0 1e-06 -23.887201 -0.249075 -0.839486 -59.535461 2.401852 -1.687444 -0.294026 1.67969 0.833256 -14.218225 0.093217 1.300582 -34.212097 -0.28756 0.967172 -20.033241 0.96454 1.212845 -1e-06 0.0 -0.0 -3.440395 0.788235 0.501657 -15.928206 -3.167311 2.999712 -6.338834 -0.0 3e-06 -18.12347 3.64819 -4.905677 -4e-06 -0.0 -1e-06 -15.948356 18.678835 18.655949 88.829498 -3.361712 11.464885 173.657639 64.672798 175.503555 -14.96825 7.977186 41.791969 2.243544 -5.255039 -3.18016 14.282897 -0.826598 6.952507 -1e-06 -12.69061 -1e-06 14.292016 -17.838646 3.998165 1.665666 -1.955922 -2.8783 4.727803 -4.170589 4.993927 11.020535 2e-06 -2e-06 12.10906 -3.73572 -2.866786 -0.0 -2e-06 0.0 1.291986 -1.928549 -1.498092 14.800136 0.567466 3.865608 14.242582 -1.341739 -6.660662 19.631979 0.143922 -0.648247 49.906963 -0.737117 -5.717139 0.35303 -1.511152 -0.03194 20.222801 3.684309 2.31663 18.787283 3e-06 -3e-06 10.751634 -0.47987 1.397905 -1e-06 0.0 0.0 3.273808 0.305947 -0.580111 21.486824 11.830376 2.266132 8.162933 1e-06 -1e-06 18.399094 -3.798988 -4.94058 2e-06 0.0 -2e-06 -4.434734 23.223864 -57.005116 0.427183 0.170486 82.946678 -3.902115 22.4496 -4.890885 1.666365 -1.81123 3.431868 0.0 -0.0 3e-06 -16.41243 8.900398 -6.301299 0.234916 1.3121 127.769333 10.483537 5.3792 -10.087066 -2.440771 0.896559 -4.071273 2e-06 0.0 -1e-06
